<svg xmlns="http://www.w3.org/2000/svg" viewBox="0 0 223.19 161.43"><defs><style>.cls-1{fill:#f938e6;}.cls-2{fill:#ff00e7;}.cls-3{fill:#d893d1;}.cls-4,.cls-6,.cls-8{fill:#fff;}.cls-5{fill:#788474;}.cls-6{isolation:isolate;font-size:22.02px;letter-spacing:0.97em;}.cls-6,.cls-8,.cls-9{font-family:BritannicBold, Britannic Bold;}.cls-7{fill:none;}.cls-8,.cls-9{font-size:61.76px;}.cls-9{fill:#ea5385;}</style></defs><title>Asset 3</title><g id="Layer_2" data-name="Layer 2"><g id="Layer_1-2" data-name="Layer 1"><polyline class="cls-1" points="11.6 79.97 21.27 62.35 32.05 77.89 21.79 65.95"/><path class="cls-2" d="M21.83,76.42l-.14-5.24a2.89,2.89,0,0,0-2.6,2.87l.06,2.45Z"/><path class="cls-2" d="M22.45,76.4l2.68-.08-.06-2.45a2.85,2.85,0,0,0-2.75-2.7Z"/><polygon class="cls-2" points="22.46 76.82 22.6 82.08 25.28 81.99 25.14 76.73 22.46 76.82"/><polygon class="cls-2" points="21.84 76.84 19.16 76.91 19.3 82.17 21.97 82.09 21.84 76.84"/><path class="cls-2" d="M153.85,24.89l-.8-5.17A3,3,0,0,0,150.83,23l.37,2.41Z"/><path class="cls-2" d="M154.46,24.78l2.65-.48-.37-2.42a2.78,2.78,0,0,0-3.07-2.26Z"/><polygon class="cls-2" points="154.53 25.19 155.33 30.38 157.98 29.89 157.17 24.71 154.53 25.19"/><polygon class="cls-2" points="153.91 25.31 151.27 25.79 152.07 30.98 154.72 30.5 153.91 25.31"/><path class="cls-2" d="M56.41,37.27l-.16-6.6a3.59,3.59,0,0,0-3.14,3.61l.09,3.1Z"/><path class="cls-2" d="M57.18,37.26l3.21-.1-.08-3.1A3.54,3.54,0,0,0,57,30.65Z"/><polygon class="cls-2" points="57.19 37.78 57.35 44.4 60.58 44.3 60.41 37.68 57.19 37.78"/><polygon class="cls-2" points="56.44 37.8 53.21 37.9 53.38 44.52 56.6 44.42 56.44 37.8"/><polyline class="cls-3" points="55.33 46.07 75.14 66.91 39.37 86.24 22.46 61.6"/><polyline class="cls-1" points="36.17 45.28 55.44 23.68 56.96 21.98 68.27 36.96 56.96 25.64"/><polyline class="cls-3" points="38.01 40.08 56.65 21.51 89.06 59.23 137.66 37.13 148.97 8.54 170.06 22.4 147.14 4.13 116.88 6.49 117.18 12.97 114.73 14.74 114.73 0 111.98 3.53 111.98 7.95 56.65 18.27"/><polyline class="cls-1" points="143.2 32.8 149.92 12.33 171.94 28.31 167.05 28.98 170.66 28.2 150.74 14.51"/><path class="cls-4" d="M195.41,73.83l-20,11c.16-14-15.21-36.62-89.52,13.1-50.62,33.86-69.73,8.39-72,8.54l0-.18c-.25-2.68,17.18,19,69.9-20.67C174.77,17.09,195.08,72.84,195.41,73.83Z"/><path class="cls-5" d="M198.3,69.8l-20,11c.16-14-15.21-36.62-89.53,13.1-50.62,33.87-69.72,8.4-72,8.55l-.05-.18c-.25-2.68,17.18,19,69.91-20.68C177.68,13.06,198,68.81,198.3,69.8Z"/><text class="cls-6" transform="matrix(1.07, -0.01, 0.01, 1, 44.92, 141.6)">apana</text><polygon class="cls-7" points="44.93 141.61 40.7 141.61 40.7 141.61 44.93 141.61"/><text class="cls-8" transform="translate(0 145.99) scale(1.21 1)">s</text><text class="cls-9" transform="translate(2.57 145.99) scale(1.21 1)">s</text></g></g></svg>