<svg xmlns="http://www.w3.org/2000/svg" viewBox="0 0 214.25 188.18"><defs><style>.cls-1{fill:#3c2769;}.cls-2{fill:#a4cf63;}.cls-3{fill:#437538;}.cls-4{isolation:isolate;font-size:25.67px;fill:#fff;letter-spacing:0.97em;}.cls-4,.cls-6,.cls-7{font-family:BritannicBold, Britannic Bold;}.cls-5{fill:none;}.cls-6,.cls-7{font-size:72px;}.cls-6{fill:#020202;}.cls-7{fill:#e52059;}</style></defs><title>Asset 1</title><g id="Layer_2" data-name="Layer 2"><g id="Layer_1-2" data-name="Layer 1"><polyline class="cls-1" points="11.13 93.22 20.41 72.68 30.76 90.8 20.91 76.88"/><path class="cls-1" d="M21,89.09,20.82,83a3.19,3.19,0,0,0-2.5,3.34l.06,2.86Z"/><path class="cls-1" d="M21.55,89.06,24.12,89l-.06-2.86A3.07,3.07,0,0,0,21.42,83Z"/><polygon class="cls-1" points="21.56 89.55 21.69 95.68 24.26 95.58 24.13 89.45 21.56 89.55"/><polygon class="cls-1" points="20.96 89.57 18.39 89.66 18.52 95.79 21.09 95.7 20.96 89.57"/><path class="cls-1" d="M147.68,29l-.77-6a3.51,3.51,0,0,0-2.13,3.77l.36,2.82Z"/><path class="cls-1" d="M148.27,28.89l2.54-.56-.36-2.82a2.79,2.79,0,0,0-2.94-2.64Z"/><polygon class="cls-1" points="148.33 29.37 149.1 35.41 151.64 34.85 150.87 28.81 148.33 29.37"/><polygon class="cls-1" points="147.74 29.5 145.2 30.06 145.97 36.11 148.51 35.55 147.74 29.5"/><path class="cls-1" d="M54.15,43.45,54,35.75A4,4,0,0,0,51,40l.08,3.61Z"/><path class="cls-1" d="M54.88,43.43,58,43.32l-.08-3.61a3.84,3.84,0,0,0-3.18-4Z"/><polygon class="cls-1" points="54.89 44.04 55.05 51.76 58.15 51.64 57.98 43.92 54.89 44.04"/><polygon class="cls-1" points="54.17 44.06 51.07 44.18 51.24 51.9 54.33 51.78 54.17 44.06"/><polyline class="cls-1" points="53.11 53.71 72.12 78 37.79 100.53 21.56 71.81"/><polyline class="cls-1" points="34.72 52.79 53.21 27.61 54.67 25.62 65.53 43.09 54.67 29.89"/><polyline class="cls-1" points="36.48 46.72 54.38 25.08 85.49 69.05 132.14 43.29 143 9.96 163.24 26.11 141.24 4.81 112.19 7.56 112.48 15.12 110.13 17.18 110.13 0 107.49 4.12 107.49 9.27 54.38 21.3"/><polyline class="cls-1" points="137.46 38.24 143.91 14.37 165.04 33 160.35 33.78 163.82 32.88 144.69 16.91"/><path class="cls-2" d="M187.57,86.07l-19.2,12.85c.15-16.29-14.6-42.69-85.94,15.27-48.59,39.48-66.93,9.79-69.09,10l0-.21c-.24-3.12,16.49,22.2,67.1-24.1C167.76,19.92,187.26,84.91,187.57,86.07Z"/><path class="cls-3" d="M190.35,81.37l-19.2,12.85c.15-16.29-14.6-42.69-85.94,15.27-48.59,39.48-66.93,9.79-69.09,10l0-.21c-.24-3.12,16.49,22.2,67.1-24.1C170.55,15.23,190,80.21,190.35,81.37Z"/><text class="cls-4" transform="matrix(0.88, -0.01, 0, 1, 43.13, 165.08)">apana</text><polygon class="cls-5" points="43.13 165.08 39.07 165.08 39.07 165.08 43.13 165.08"/><text class="cls-6" transform="translate(0 170.18)">s</text><text class="cls-7" transform="translate(2.3 170.18)">s</text></g></g></svg>