<svg xmlns="http://www.w3.org/2000/svg" viewBox="0 0 254.3 254.3"><defs><style>.cls-1{fill:#f05f96;}.cls-2{fill:#3c2769;}.cls-3{fill:#a4cf63;}.cls-4{fill:#437538;}.cls-5{fill:#67449b;}.cls-6{font-size:25.67px;fill:#fff;font-family:BritannicBold, Britannic Bold;letter-spacing:1em;}</style></defs><title>Asset 2</title><g id="Layer_2" data-name="Layer 2"><g id="Layer_1-2" data-name="Layer 1"><rect class="cls-1" width="254.3" height="254.3" rx="127.15"/><polyline class="cls-2" points="42.75 127.62 52.03 107.08 62.38 125.2 52.53 111.28"/><path class="cls-2" d="M52.56,123.48l-.12-6.11a3.21,3.21,0,0,0-2.51,3.34l.06,2.87Z"/><path class="cls-2" d="M53.17,123.46l2.57-.09-.06-2.87A3.08,3.08,0,0,0,53,117.35Z"/><polygon class="cls-2" points="53.18 123.94 53.31 130.07 55.88 129.98 55.75 123.85 53.18 123.94"/><polygon class="cls-2" points="52.57 123.97 50 124.06 50.13 130.19 52.7 130.09 52.57 123.97"/><path class="cls-2" d="M179.29,63.42l-.76-6a3.5,3.5,0,0,0-2.13,3.76l.36,2.83Z"/><path class="cls-2" d="M179.89,63.29l2.54-.57-.36-2.82a2.8,2.8,0,0,0-2.95-2.64Z"/><polygon class="cls-2" points="179.95 63.76 180.72 69.81 183.25 69.25 182.49 63.2 179.95 63.76"/><polygon class="cls-2" points="179.35 63.89 176.82 64.45 177.58 70.5 180.12 69.94 179.35 63.89"/><path class="cls-2" d="M85.77,77.85l-.16-7.7a4,4,0,0,0-3,4.21l.08,3.6Z"/><path class="cls-2" d="M86.49,77.82l3.1-.11-.08-3.61a3.84,3.84,0,0,0-3.18-4Z"/><polygon class="cls-2" points="86.51 78.43 86.67 86.15 89.76 86.04 89.6 78.32 86.51 78.43"/><polygon class="cls-2" points="85.78 78.46 82.69 78.57 82.85 86.29 85.94 86.18 85.78 78.46"/><polyline class="cls-2" points="84.73 88.11 103.73 112.4 69.41 134.93 53.18 106.21"/><polyline class="cls-2" points="66.34 87.19 84.83 62.01 86.29 60.02 97.15 77.48 86.29 64.29"/><polyline class="cls-2" points="68.1 81.12 86 59.48 117.1 103.45 163.76 77.68 174.61 44.36 194.86 60.51 172.85 39.2 143.8 41.95 144.1 49.51 141.75 51.57 141.75 34.4 139.11 38.52 139.11 43.67 86 55.7"/><polyline class="cls-2" points="169.07 72.64 175.53 48.76 196.66 67.4 191.96 68.17 195.43 67.27 176.3 51.31"/><path class="cls-3" d="M219.18,120.46,200,133.32c.15-16.3-14.6-42.7-85.94,15.27-48.59,39.48-66.93,9.79-69.09,10l0-.21c-.24-3.13,16.49,22.19,67.1-24.1C199.38,54.32,218.87,119.31,219.18,120.46Z"/><path class="cls-4" d="M222,115.77l-19.21,12.85c.15-16.29-14.6-42.69-85.94,15.27-48.58,39.48-66.93,9.79-69.08,10l-.05-.21c-.24-3.12,16.49,22.2,67.1-24.1C202.16,49.62,221.66,114.61,222,115.77Z"/><path class="cls-5" d="M249.19,119.29v-2"/><text class="cls-6" transform="matrix(0.88, -0.01, 0, 1, 30.21, 193.35)">Sapana</text><text/></g></g></svg>