<svg xmlns="http://www.w3.org/2000/svg" viewBox="0 0 221.96 180.36"><defs><style>.cls-1{fill:#31bdb7;}.cls-2{fill:#339ba2;}.cls-3{fill:#70ccd8;}.cls-4{fill:#65cbe4;}.cls-5{fill:#a4cf63;}.cls-6{fill:#437538;}.cls-7{font-size:25.67px;letter-spacing:1em;}.cls-7,.cls-8{fill:#231f20;}.cls-7,.cls-8,.cls-9{font-family:BritannicBold, Britannic Bold;}.cls-8,.cls-9{font-size:72px;letter-spacing:1em;}.cls-9{fill:#b51e48;}</style></defs><title>Asset 4</title><g id="Layer_2" data-name="Layer 2"><g id="Layer_1-2" data-name="Layer 1"><polyline class="cls-1" points="35.68 93.22 44.96 72.69 55.31 90.8 45.46 76.88"/><path class="cls-2" d="M45.49,89.09,45.36,83a3.2,3.2,0,0,0-2.5,3.34l.06,2.86Z"/><path class="cls-2" d="M46.1,89.06,48.67,89l-.06-2.86A3.09,3.09,0,0,0,46,83Z"/><polygon class="cls-2" points="46.11 89.55 46.24 95.68 48.81 95.58 48.68 89.45 46.11 89.55"/><polygon class="cls-2" points="45.5 89.57 42.93 89.67 43.06 95.79 45.63 95.7 45.5 89.57"/><path class="cls-2" d="M172.22,29l-.76-6a3.51,3.51,0,0,0-2.13,3.77l.35,2.82Z"/><path class="cls-2" d="M172.82,28.89l2.54-.56L175,25.5a2.8,2.8,0,0,0-2.95-2.64Z"/><polygon class="cls-2" points="172.88 29.37 173.65 35.41 176.18 34.85 175.42 28.81 172.88 29.37"/><polygon class="cls-2" points="172.28 29.5 169.75 30.06 170.51 36.11 173.05 35.55 172.28 29.5"/><path class="cls-2" d="M78.7,43.46l-.16-7.7a4,4,0,0,0-3,4.2l.08,3.61Z"/><path class="cls-2" d="M79.42,43.43l3.1-.12-.08-3.6a3.85,3.85,0,0,0-3.18-4Z"/><polygon class="cls-2" points="79.44 44.04 79.6 51.76 82.69 51.64 82.53 43.92 79.44 44.04"/><polygon class="cls-2" points="78.71 44.06 75.62 44.18 75.78 51.9 78.87 51.78 78.71 44.06"/><polyline class="cls-3" points="77.66 53.72 96.66 78.01 62.34 100.53 46.11 71.81"/><polyline class="cls-1" points="59.27 52.8 77.76 27.61 79.22 25.62 90.08 43.09 79.22 29.89"/><polyline class="cls-4" points="61.03 46.72 78.93 25.08 110.03 69.06 156.69 43.29 167.54 9.96 187.79 26.11 165.78 4.81 136.73 7.56 137.03 15.12 134.68 17.18 134.68 0 132.04 4.12 132.04 9.28 78.93 21.3"/><polyline class="cls-1" points="162 38.24 168.46 14.37 189.59 33 184.89 33.78 188.36 32.88 169.23 16.92"/><path class="cls-5" d="M212.11,86.07l-19.2,12.85c.14-16.29-14.6-42.69-85.94,15.27C58.38,153.67,40,124,37.88,124.15l0-.21c-.24-3.12,16.49,22.2,67.1-24.1C192.31,19.92,211.8,84.91,212.11,86.07Z"/><path class="cls-6" d="M214.9,81.37,195.69,94.23c.15-16.3-14.6-42.7-85.94,15.27-48.58,39.48-66.93,9.79-69.08,10l-.05-.21c-.24-3.13,16.49,22.19,67.1-24.1C195.09,15.23,214.59,80.22,214.9,81.37Z"/><text class="cls-7" transform="matrix(0.88, -0.01, 0, 1, 47.32, 162.36)">apana</text><text/><text class="cls-8" transform="translate(0 162.36)">s</text><text class="cls-9" transform="translate(4.09 162.36)">s</text></g></g></svg>